<svg xmlns="http://www.w3.org/2000/svg" width="40" height="40" version="1.1" viewBox="8 8 24 24">
  <g fill="none" fill-rule="evenodd" stroke="none" stroke-width="40">
    
    <g fill="#000" transform="translate(9.5 8.842)">
      <path d="M6.18094092,6.10106102 L4.1720369,13.2352183 C4.110323,13.4543809 3.97213453,13.6441823 3.78251714,13.7702223 L1.2755144,15.4366452 C0.478797596,15.9662286 2.82228942e-15,16.859412 3.38353684e-15,17.8160814 L3.38353684e-15,18.6150436 L3.38353684e-15,18.6150436 C3.38353684e-15,19.057664 0.356951954,19.4146159 0.799572315,19.4146159 L7.738718,19.4146159 C8.14921273,19.4146159 8.54185986,19.257557 8.83812995,18.975565 L18.9335012,8.59628012 C20.0220659,7.47710159 20.0106864,5.69135705 18.907947,4.58614238 L14.5350829,0.203462625 L14.5350829,0.203462625 L14.3358216,0.181235821 C13.5330182,0.091686318 12.8096233,0.669892808 12.7200738,1.47269616 C12.7140682,1.52653541 12.7110585,1.58066673 12.7110585,1.63483988 L12.7110585,1.63483988 L12.7110585,1.63483988 C12.7431842,1.8775672 12.8173572,3.53391613 12.0341265,4.31155701 C11.466457,4.85055937 10.7390394,5.08628845 9.85187346,5.01874425 C9.80694714,5.06367057 9.34386475,4.97944586 8.46262631,4.76607012 C7.46679953,4.52497403 6.45865624,5.11481941 6.18094092,6.10106102 Z"/>
      <rect width="5.074" height="1.9" x="14.65" y="13.964" fill-opacity=".6" rx=".95"/>
      <path fill-opacity=".6" d="M9.09453034,17.5120621 L7.01196385,19.4146159 L18.7243491,19.4146159 C19.2987155,19.4146159 19.767586,18.9898431 19.767586,18.4615542 C19.767586,17.9368349 19.3026227,17.5084926 18.7243491,17.5084926 L9.09453034,17.5084926 L9.09453034,17.5120621 Z"/>
    </g>
  </g>
</svg>
